<svg width="22" height="25" viewBox="0 0 22 25" fill="none" xmlns="http://www.w3.org/2000/svg">
<g clip-path="url(#clip0_1_156)">
<path d="M4.92446 21.5745H0.363393V7.55423H4.92446V21.5745ZM2.64147 5.64173C1.18299 5.64173 0 4.48861 0 3.09642C1.04392e-08 2.4277 0.278297 1.78637 0.77367 1.31351C1.26904 0.84066 1.94091 0.575012 2.64147 0.575012C3.34204 0.575012 4.0139 0.84066 4.50928 1.31351C5.00465 1.78637 5.28295 2.4277 5.28295 3.09642C5.28295 4.48861 4.09946 5.64173 2.64147 5.64173ZM21.9951 21.5745H17.4438V14.7495C17.4438 13.123 17.4095 11.037 15.0725 11.037C12.7011 11.037 12.3377 12.8042 12.3377 14.6324V21.5745H7.78152V7.55423H12.156V9.46673H12.2198C12.8287 8.36517 14.3162 7.20267 16.5354 7.20267C21.1514 7.20267 22 10.1042 22 13.873V21.5745H21.9951Z" fill="white"/>
</g>
<defs>
<clipPath id="clip0_1_156">
<rect width="22" height="24" fill="white" transform="translate(0 0.574341)"/>
</clipPath>
</defs>
</svg>
