<svg width="24" height="25" viewBox="0 0 24 25" fill="none" xmlns="http://www.w3.org/2000/svg">
<path d="M7.8 2.57434H16.2C19.4 2.57434 22 5.17434 22 8.37434V16.7743C22 18.3126 21.3889 19.7878 20.3012 20.8756C19.2135 21.9633 17.7383 22.5743 16.2 22.5743H7.8C4.6 22.5743 2 19.9743 2 16.7743V8.37434C2 6.83609 2.61107 5.36083 3.69878 4.27312C4.78649 3.18541 6.26174 2.57434 7.8 2.57434ZM7.6 4.57434C6.64522 4.57434 5.72955 4.95363 5.05442 5.62876C4.37928 6.30389 4 7.21956 4 8.17434V16.9743C4 18.9643 5.61 20.5743 7.6 20.5743H16.4C17.3548 20.5743 18.2705 20.1951 18.9456 19.5199C19.6207 18.8448 20 17.9291 20 16.9743V8.17434C20 6.18434 18.39 4.57434 16.4 4.57434H7.6ZM17.25 6.07434C17.5815 6.07434 17.8995 6.20604 18.1339 6.44046C18.3683 6.67488 18.5 6.99282 18.5 7.32434C18.5 7.65586 18.3683 7.9738 18.1339 8.20822C17.8995 8.44264 17.5815 8.57434 17.25 8.57434C16.9185 8.57434 16.6005 8.44264 16.3661 8.20822C16.1317 7.9738 16 7.65586 16 7.32434C16 6.99282 16.1317 6.67488 16.3661 6.44046C16.6005 6.20604 16.9185 6.07434 17.25 6.07434ZM12 7.57434C13.3261 7.57434 14.5979 8.10112 15.5355 9.03881C16.4732 9.97649 17 11.2483 17 12.5743C17 13.9004 16.4732 15.1722 15.5355 16.1099C14.5979 17.0476 13.3261 17.5743 12 17.5743C10.6739 17.5743 9.40215 17.0476 8.46447 16.1099C7.52678 15.1722 7 13.9004 7 12.5743C7 11.2483 7.52678 9.97649 8.46447 9.03881C9.40215 8.10112 10.6739 7.57434 12 7.57434ZM12 9.57434C11.2044 9.57434 10.4413 9.89041 9.87868 10.453C9.31607 11.0156 9 11.7787 9 12.5743C9 13.37 9.31607 14.1331 9.87868 14.6957C10.4413 15.2583 11.2044 15.5743 12 15.5743C12.7956 15.5743 13.5587 15.2583 14.1213 14.6957C14.6839 14.1331 15 13.37 15 12.5743C15 11.7787 14.6839 11.0156 14.1213 10.453C13.5587 9.89041 12.7956 9.57434 12 9.57434Z" fill="white"/>
</svg>
