<svg width="24" height="25" viewBox="0 0 24 25" fill="none" xmlns="http://www.w3.org/2000/svg">
<path d="M22.46 6.57434C21.69 6.92434 20.86 7.15434 20 7.26434C20.88 6.73434 21.56 5.89434 21.88 4.88434C21.05 5.38434 20.13 5.73434 19.16 5.93434C18.37 5.07434 17.26 4.57434 16 4.57434C13.65 4.57434 11.73 6.49434 11.73 8.86434C11.73 9.20434 11.77 9.53434 11.84 9.84434C8.28001 9.66434 5.11001 7.95434 3.00001 5.36434C2.63001 5.99434 2.42001 6.73434 2.42001 7.51434C2.42001 9.00434 3.17001 10.3243 4.33001 11.0743C3.62001 11.0743 2.96001 10.8743 2.38001 10.5743V10.6043C2.38001 12.6843 3.86001 14.4243 5.82001 14.8143C5.19074 14.9865 4.5301 15.0105 3.89001 14.8843C4.16162 15.7368 4.69355 16.4827 5.41103 17.0173C6.1285 17.5518 6.99546 17.848 7.89001 17.8643C6.37364 19.0648 4.494 19.7137 2.56001 19.7043C2.22001 19.7043 1.88001 19.6843 1.54001 19.6443C3.44001 20.8643 5.70001 21.5743 8.12001 21.5743C16 21.5743 20.33 15.0343 20.33 9.36434C20.33 9.17434 20.33 8.99434 20.32 8.80434C21.16 8.20434 21.88 7.44434 22.46 6.57434Z" fill="white"/>
</svg>
